<svg width="202" height="202" viewBox="89 25 150 150" fill="none" xmlns="http://www.w3.org/2000/svg">
<path d="M176.255 57.4126C171.622 51.867 167.632 46.2348 166.817 45.065C166.731 44.9783 166.603 44.9783 166.517 45.065C165.702 46.2348 161.712 51.867 157.079 57.4126C117.312 108.579 163.342 143.109 163.342 143.109L163.728 143.369C164.072 148.698 164.93 156.367 164.93 156.367H166.646H168.362C168.362 156.367 169.22 148.741 169.563 143.369L169.949 143.066C169.992 143.109 216.022 108.579 176.255 57.4126ZM166.646 142.373C166.646 142.373 164.586 140.596 164.029 139.687V139.6L166.517 83.8841C166.517 83.7108 166.774 83.7108 166.774 83.8841L169.262 139.6V139.687C168.705 140.596 166.646 142.373 166.646 142.373Z" fill="#FFF"/>
</svg>
